<?xml version="1.0" encoding="utf-8"?>
<!-- Generator: Adobe Illustrator 25.0.0, SVG Export Plug-In . SVG Version: 6.00 Build 0)  -->
<svg version="1.1" id="Calque_1" xmlns="http://www.w3.org/2000/svg" xmlns:xlink="http://www.w3.org/1999/xlink" x="0px" y="0px"
	 viewBox="0 0 500 500" style="enable-background:new 0 0 500 500;" xml:space="preserve">
<style type="text/css">
	.st0{opacity:0.5;}
	.st1{opacity:0.5;fill:#742375;}
	.st2{fill:#742375;}
</style>
<g class="st0">
	<g>
		<path class="st1" d="M420.59,381.73c-8.44-2.02-16.23-4.18-24.15-5.72c-16.8-3.26-33.59-6.72-50.54-9.09
			c-16.39-2.3-32.97-3.54-49.49-4.83c-9.61-0.75-19.28-0.85-28.93-0.97c-21.98-0.26-43.88,0.83-65.73,3.44
			c-11.24,1.34-22.29,3.37-33.17,6.15c-10.69,2.73-21.27,5.86-31.82,9.06c-5.01,1.52-9.86,3.51-14.69,5.5
			c-1.07,0.44-2.44,1.77-2.41,2.65c0.04,0.9,1.46,2.11,2.57,2.54c4.2,1.64,8.57,1.73,12.81,0.17c3.21-1.18,6.17-3.06,9.43-4.05
			c12.17-3.7,24.29-7.63,36.67-10.55c9.41-2.22,19.14-3.46,28.8-4.38c13.83-1.31,27.73-2.37,41.62-2.71
			c13.21-0.32,26.46,0.21,39.67,0.74c10.02,0.4,20.07,1.01,30.01,2.22c13.66,1.66,27.32,3.59,40.83,6.11
			c16.72,3.12,33.28,7.01,49.94,10.47c6.28,1.3,12.31,3.78,18.98,3.31c5.81-0.4,7.34-1.6,7.95-7.01c0.07-0.66,0.17-1.31,0.27-1.96
			c2.25-14.54,4.52-29.08,6.76-43.62c1.42-9.23,2.79-18.47,4.17-27.71c2.65-17.64,5.27-35.28,7.98-52.91
			c0.3-1.93-0.09-3.28-1.95-4.25c-4.29-2.24-8.97-2.58-13.16-0.67c-7.37,3.36-14.44,7.34-21.55,11.2
			c-5.5,2.98-11.02,5.98-16.28,9.32c-11.36,7.21-22.59,14.6-33.81,22c-2.75,1.81-5.25,3.97-7.89,5.94c-2.86,2.12-5.76,4.19-8.9,6.47
			c-0.66-1.29-1.12-2.09-1.5-2.94c-4.96-11.09-9.73-22.26-14.9-33.26c-8.04-17.11-16.19-34.17-24.59-51.12
			c-7.98-16.1-16.31-32.04-24.56-48.03c-4.1-7.94-8.23-15.87-12.59-23.69c-1.04-1.87-2.77-3.95-4.71-4.69
			c-3.92-1.51-8.48-1.58-12.21,0.13c-2.33,1.07-3.65,4.13-5.42,6.3c-0.06,0.07-0.12,0.15-0.17,0.23
			c-7.87,12.85-15.74,25.7-23.61,38.55c-5.78,9.44-11.54,18.88-17.35,28.3c-6.46,10.48-12.99,20.93-19.44,31.41
			c-8,13.01-15.97,26.03-23.93,39.07c-2.83,4.64-5.55,9.34-8.41,13.96c-2.45,3.97-5.02,7.86-7.75,12.12
			c-2.12-1.67-4.02-3.3-6.05-4.75c-8.7-6.21-17.44-12.38-26.18-18.54c-9.06-6.39-18.12-12.79-27.21-19.14
			c-7.02-4.91-14.1-9.74-21.13-14.63c-1.43-0.99-2.8-2.08-4.09-3.22c-4.26-3.75-13.5-4.56-18.17-1.37c-0.73,0.5-1.35,1.98-1.12,2.76
			c1.96,6.52,4.13,12.97,6.24,19.45c2.78,8.55,5.6,17.09,8.35,25.65c3.8,11.8,7.57,23.61,11.32,35.43
			c3.35,10.56,6.63,21.14,9.96,31.7c2.28,7.22,4.6,14.43,6.87,21.65c0.75,2.4,2.28,4.15,4.93,4.31c3.51,0.21,7.07,0.22,10.56-0.09
			c3.44-0.31,4.14-1.46,3.16-4.54c-3.63-11.45-7.34-22.88-11.03-34.32c-3.57-11.07-7.18-22.13-10.73-33.21
			c-3.93-12.25-7.83-24.51-11.72-36.78c-1.1-3.48-2.14-6.97-3.44-11.24c1.87,1.13,3.05,1.76,4.14,2.51
			c4.89,3.36,9.79,6.71,14.63,10.14c8,5.68,15.91,11.47,23.94,17.1c7.89,5.53,15.89,10.93,23.83,16.4c0.47,0.32,0.75,0.88,1.21,1.2
			c4.3,2.97,8.18,6.75,14.05,6.79c5.19,0.03,10.07-0.19,12.68-5.74c1.97-4.19,4.62-8.11,7.05-12.1
			c9.79-16.05,19.61-32.08,29.42-48.11c5.67-9.28,11.34-18.56,17.02-27.83c7.78-12.69,15.58-25.38,23.34-38.07
			c5.58-9.12,11.1-18.26,16.69-27.37c0.91-1.48,2.03-2.83,3.27-4.54c0.72,0.98,1.17,1.47,1.46,2.02
			c4.24,8.09,8.48,16.18,12.66,24.29c5.84,11.34,11.83,22.61,17.39,34.07c8.13,16.76,16.07,33.6,23.82,50.51
			c6.92,15.11,13.48,30.37,20.24,45.54c0.37,0.82,1,1.67,1.75,2.17c4.54,2.98,14.06,1.96,17.81-1.82c1.08-1.09,2.09-2.26,3.29-3.22
			c7.51-5.97,14.85-12.18,22.67-17.76c9.57-6.83,19.51-13.21,29.41-19.63c4.74-3.08,9.72-5.83,14.63-8.65
			c2.08-1.19,4.27-2.2,6.42-3.3c0.28,0.17,0.57,0.33,0.85,0.5C432,306.48,426.34,343.79,420.59,381.73z M271.04,128.74
			c0.7,0,1.4,0.05,2.09-0.01c8.94-0.84,14.52-7.12,15.68-14.63c0.89-5.78-5.09-13.36-13.2-14.35c-3.03-0.37-6.2-0.51-9.21-0.13
			c-7.76,0.99-15.27,10.16-12.67,17.49C256.45,124.78,262.42,128.82,271.04,128.74z M469.21,213.21
			c-7.23-0.68-13.45,6.88-13.28,12.5c0.22,7.14,6.39,13.52,13.52,13.54c8.23,0.02,13.98-7.72,14.12-13.76
			C483.69,219.89,478.27,212.69,469.21,213.21z M42.71,214.24c-7.51-0.72-13.39,6.54-13.41,12.03c-0.02,7.47,5.59,13.67,13.05,13.86
			c8.14,0.21,13.97-6.73,14.31-13.51C56.95,220.81,51.47,213.92,42.71,214.24z"/>
		<path class="st2" d="M387.56,387.97c5.75-37.94,11.41-75.25,17.07-112.56c-0.28-0.17-0.57-0.33-0.85-0.5
			c-2.14,1.09-4.34,2.1-6.42,3.3c-4.92,2.83-9.89,5.58-14.63,8.65c-9.89,6.42-19.83,12.8-29.41,19.63
			c-7.82,5.58-15.16,11.79-22.67,17.76c-1.2,0.95-2.21,2.13-3.29,3.22c-3.75,3.78-13.26,4.81-17.81,1.82
			c-0.76-0.5-1.39-1.35-1.75-2.17c-6.76-15.17-13.31-30.44-20.24-45.54c-7.75-16.92-15.69-33.76-23.82-50.51
			c-5.56-11.46-11.55-22.73-17.39-34.07c-4.18-8.12-8.43-16.2-12.66-24.29c-0.29-0.56-0.75-1.04-1.46-2.02
			c-1.24,1.7-2.36,3.06-3.27,4.54c-5.59,9.11-11.12,18.25-16.69,27.37c-7.77,12.7-15.57,25.38-23.34,38.07
			c-5.68,9.27-11.35,18.56-17.02,27.83c-9.81,16.04-19.63,32.07-29.42,48.11c-2.43,3.99-5.08,7.91-7.05,12.1
			c-2.61,5.55-7.49,5.77-12.68,5.74c-5.87-0.04-9.75-3.82-14.05-6.79c-0.47-0.32-0.75-0.88-1.21-1.2
			c-7.94-5.47-15.94-10.87-23.83-16.4c-8.03-5.63-15.94-11.43-23.94-17.1c-4.84-3.43-9.74-6.78-14.63-10.14
			c-1.09-0.75-2.28-1.39-4.14-2.51c1.3,4.26,2.34,7.76,3.44,11.24c3.89,12.26,7.79,24.53,11.72,36.78
			c3.55,11.08,7.16,22.14,10.73,33.21c3.69,11.44,7.4,22.87,11.03,34.32c0.98,3.08,0.27,4.23-3.16,4.54
			c-3.5,0.32-7.05,0.3-10.56,0.09c-2.65-0.16-4.18-1.91-4.93-4.31c-2.27-7.22-4.6-14.43-6.87-21.65
			c-3.33-10.56-6.61-21.14-9.96-31.7c-3.74-11.82-7.52-23.62-11.32-35.43c-2.75-8.56-5.56-17.1-8.35-25.65
			c-2.11-6.48-4.28-12.93-6.24-19.45c-0.23-0.78,0.39-2.26,1.12-2.76c4.67-3.19,13.91-2.38,18.17,1.37c1.3,1.14,2.67,2.22,4.09,3.22
			c7.03,4.9,14.11,9.73,21.13,14.63c9.09,6.35,18.15,12.75,27.21,19.14c8.74,6.17,17.47,12.33,26.18,18.54
			c2.03,1.45,3.93,3.08,6.05,4.75c2.73-4.25,5.3-8.15,7.75-12.12c2.86-4.62,5.58-9.32,8.41-13.96
			c7.96-13.03,15.93-26.06,23.93-39.07c6.45-10.49,12.98-20.93,19.44-31.41c5.81-9.42,11.57-18.87,17.35-28.3
			c7.87-12.85,15.74-25.7,23.61-38.55c0.05-0.08,0.11-0.16,0.17-0.23c1.77-2.17,3.09-5.23,5.42-6.3c3.73-1.71,8.29-1.64,12.21-0.13
			c1.94,0.75,3.66,2.83,4.71,4.69c4.36,7.81,8.49,15.74,12.59,23.69c8.24,15.98,16.57,31.93,24.56,48.03
			c8.4,16.95,16.55,34.01,24.59,51.12c5.17,11,9.94,22.17,14.9,33.26c0.38,0.84,0.84,1.65,1.5,2.94c3.14-2.28,6.04-4.35,8.9-6.47
			c2.65-1.96,5.14-4.12,7.89-5.94c11.22-7.4,22.45-14.79,33.81-22c5.26-3.34,10.78-6.33,16.28-9.32c7.11-3.86,14.17-7.84,21.55-11.2
			c4.19-1.91,8.87-1.57,13.16,0.67c1.86,0.97,2.24,2.33,1.95,4.25c-2.7,17.63-5.33,35.27-7.98,52.9
			c-1.39,9.24-2.75,18.48-4.17,27.71c-2.23,14.54-4.51,29.08-6.76,43.62c-0.1,0.65-0.2,1.31-0.27,1.96c-0.61,5.4-2.14,6.6-7.95,7.01
			c-6.66,0.46-12.7-2.01-18.98-3.31c-16.66-3.45-33.22-7.35-49.94-10.47c-13.51-2.52-27.17-4.45-40.83-6.11
			c-9.94-1.21-19.99-1.82-30.01-2.22c-13.21-0.53-26.46-1.07-39.67-0.74c-13.89,0.34-27.79,1.4-41.62,2.71
			c-9.67,0.92-19.39,2.16-28.8,4.38c-12.38,2.92-24.51,6.85-36.67,10.55c-3.26,0.99-6.22,2.87-9.43,4.05
			c-4.24,1.56-8.61,1.47-12.81-0.17c-1.1-0.43-2.53-1.64-2.57-2.54c-0.03-0.88,1.34-2.21,2.41-2.65c4.83-1.98,9.69-3.98,14.69-5.5
			c10.55-3.2,21.13-6.33,31.82-9.06c10.89-2.78,21.94-4.8,33.17-6.15c21.84-2.61,43.74-3.7,65.73-3.44
			c9.65,0.12,19.32,0.22,28.93,0.97c16.53,1.29,33.1,2.54,49.49,4.83c16.95,2.37,33.74,5.84,50.54,9.09
			C371.33,383.79,379.12,385.95,387.56,387.97z"/>
		<path class="st1" d="M271.04,128.74c-8.62,0.08-14.59-3.96-17.32-11.63c-2.6-7.33,4.91-16.5,12.67-17.49
			c3.01-0.38,6.18-0.24,9.21,0.13c8.1,0.99,14.09,8.57,13.2,14.35c-1.16,7.51-6.74,13.79-15.68,14.63
			C272.44,128.79,271.74,128.73,271.04,128.74z"/>
		<path class="st1" d="M469.21,213.21c9.06-0.51,14.48,6.68,14.35,12.27c-0.13,6.04-5.89,13.78-14.12,13.76
			c-7.12-0.02-13.3-6.4-13.52-13.54C455.75,220.09,461.98,212.53,469.21,213.21z"/>
		<path class="st1" d="M42.71,214.24c8.77-0.32,14.24,6.57,13.95,12.38c-0.34,6.79-6.17,13.72-14.31,13.51
			c-7.46-0.19-13.07-6.39-13.05-13.86C29.32,220.79,35.19,213.52,42.71,214.24z"/>
	</g>
</g>
</svg>
